<mxfile host="app.diagrams.net" agent="Mozilla/5.0 (Windows NT 10.0; Win64; x64) AppleWebKit/537.36 (KHTML, like Gecko) Chrome/138.0.0.0 Safari/537.36" version="28.0.5">
  <diagram name="Page-1" id="YCxFaZnNaEjG4PR1JDue">
    <mxGraphModel dx="974" dy="1202" grid="1" gridSize="10" guides="1" tooltips="1" connect="1" arrows="1" fold="1" page="1" pageScale="1" pageWidth="850" pageHeight="1100" math="0" shadow="0">
      <root>
        <mxCell id="0" />
        <mxCell id="1" parent="0" />
        <mxCell id="RTvoSNndDVeTP_H8ob7e-1" value="启动程序" style="whiteSpace=wrap;strokeWidth=2;" vertex="1" parent="1">
          <mxGeometry x="149" y="20" width="124" height="54" as="geometry" />
        </mxCell>
        <mxCell id="RTvoSNndDVeTP_H8ob7e-2" value="加载配置文件" style="whiteSpace=wrap;strokeWidth=2;" vertex="1" parent="1">
          <mxGeometry x="133" y="124" width="156" height="54" as="geometry" />
        </mxCell>
        <mxCell id="RTvoSNndDVeTP_H8ob7e-3" value="配置文件存在?" style="rhombus;strokeWidth=2;whiteSpace=wrap;" vertex="1" parent="1">
          <mxGeometry x="133" y="228" width="156" height="156" as="geometry" />
        </mxCell>
        <mxCell id="RTvoSNndDVeTP_H8ob7e-4" value="初始化UI状态" style="whiteSpace=wrap;strokeWidth=2;" vertex="1" parent="1">
          <mxGeometry x="77" y="457" width="155" height="54" as="geometry" />
        </mxCell>
        <mxCell id="RTvoSNndDVeTP_H8ob7e-5" value="创建默认配置" style="whiteSpace=wrap;strokeWidth=2;" vertex="1" parent="1">
          <mxGeometry x="282" y="457" width="156" height="54" as="geometry" />
        </mxCell>
        <mxCell id="RTvoSNndDVeTP_H8ob7e-6" value="显示主界面" style="whiteSpace=wrap;strokeWidth=2;" vertex="1" parent="1">
          <mxGeometry x="141" y="561" width="140" height="54" as="geometry" />
        </mxCell>
        <mxCell id="RTvoSNndDVeTP_H8ob7e-7" value="进入事件循环" style="whiteSpace=wrap;strokeWidth=2;" vertex="1" parent="1">
          <mxGeometry x="133" y="665" width="156" height="54" as="geometry" />
        </mxCell>
        <mxCell id="RTvoSNndDVeTP_H8ob7e-8" value="收到操作指令?" style="rhombus;strokeWidth=2;whiteSpace=wrap;" vertex="1" parent="1">
          <mxGeometry x="20" y="769" width="156" height="156" as="geometry" />
        </mxCell>
        <mxCell id="RTvoSNndDVeTP_H8ob7e-9" value="执行对应模块功能" style="whiteSpace=wrap;strokeWidth=2;" vertex="1" parent="1">
          <mxGeometry x="60" y="1033" width="188" height="54" as="geometry" />
        </mxCell>
        <mxCell id="RTvoSNndDVeTP_H8ob7e-10" value="退出信号?" style="rhombus;strokeWidth=2;whiteSpace=wrap;" vertex="1" parent="1">
          <mxGeometry x="298" y="998" width="124" height="124" as="geometry" />
        </mxCell>
        <mxCell id="RTvoSNndDVeTP_H8ob7e-11" value="保存当前配置" style="whiteSpace=wrap;strokeWidth=2;" vertex="1" parent="1">
          <mxGeometry x="282" y="1195" width="156" height="54" as="geometry" />
        </mxCell>
        <mxCell id="RTvoSNndDVeTP_H8ob7e-12" value="退出程序" style="whiteSpace=wrap;strokeWidth=2;" vertex="1" parent="1">
          <mxGeometry x="298" y="1299" width="124" height="54" as="geometry" />
        </mxCell>
        <mxCell id="RTvoSNndDVeTP_H8ob7e-13" value="" style="curved=1;startArrow=none;endArrow=block;exitX=0.5;exitY=1;entryX=0.5;entryY=0;rounded=0;" edge="1" parent="1" source="RTvoSNndDVeTP_H8ob7e-1" target="RTvoSNndDVeTP_H8ob7e-2">
          <mxGeometry relative="1" as="geometry">
            <Array as="points" />
          </mxGeometry>
        </mxCell>
        <mxCell id="RTvoSNndDVeTP_H8ob7e-14" value="" style="curved=1;startArrow=none;endArrow=block;exitX=0.5;exitY=1;entryX=0.5;entryY=0;rounded=0;" edge="1" parent="1" source="RTvoSNndDVeTP_H8ob7e-2" target="RTvoSNndDVeTP_H8ob7e-3">
          <mxGeometry relative="1" as="geometry">
            <Array as="points" />
          </mxGeometry>
        </mxCell>
        <mxCell id="RTvoSNndDVeTP_H8ob7e-15" value="是" style="curved=1;startArrow=none;endArrow=block;exitX=0.25;exitY=1;entryX=0.5;entryY=0;rounded=0;" edge="1" parent="1" source="RTvoSNndDVeTP_H8ob7e-3" target="RTvoSNndDVeTP_H8ob7e-4">
          <mxGeometry relative="1" as="geometry">
            <Array as="points">
              <mxPoint x="155" y="420" />
            </Array>
          </mxGeometry>
        </mxCell>
        <mxCell id="RTvoSNndDVeTP_H8ob7e-16" value="否" style="curved=1;startArrow=none;endArrow=block;exitX=1;exitY=0.88;entryX=0.5;entryY=0;rounded=0;" edge="1" parent="1" source="RTvoSNndDVeTP_H8ob7e-3" target="RTvoSNndDVeTP_H8ob7e-5">
          <mxGeometry relative="1" as="geometry">
            <Array as="points">
              <mxPoint x="360" y="420" />
            </Array>
          </mxGeometry>
        </mxCell>
        <mxCell id="RTvoSNndDVeTP_H8ob7e-17" value="" style="curved=1;startArrow=none;endArrow=block;exitX=0.5;exitY=1;entryX=0.29;entryY=0;rounded=0;" edge="1" parent="1" source="RTvoSNndDVeTP_H8ob7e-4" target="RTvoSNndDVeTP_H8ob7e-6">
          <mxGeometry relative="1" as="geometry">
            <Array as="points">
              <mxPoint x="155" y="536" />
            </Array>
          </mxGeometry>
        </mxCell>
        <mxCell id="RTvoSNndDVeTP_H8ob7e-18" value="" style="curved=1;startArrow=none;endArrow=block;exitX=0.5;exitY=1;entryX=1;entryY=0.05;rounded=0;" edge="1" parent="1" source="RTvoSNndDVeTP_H8ob7e-5" target="RTvoSNndDVeTP_H8ob7e-6">
          <mxGeometry relative="1" as="geometry">
            <Array as="points">
              <mxPoint x="360" y="536" />
            </Array>
          </mxGeometry>
        </mxCell>
        <mxCell id="RTvoSNndDVeTP_H8ob7e-19" value="" style="curved=1;startArrow=none;endArrow=block;exitX=0.5;exitY=1;entryX=0.5;entryY=0;rounded=0;" edge="1" parent="1" source="RTvoSNndDVeTP_H8ob7e-6" target="RTvoSNndDVeTP_H8ob7e-7">
          <mxGeometry relative="1" as="geometry">
            <Array as="points" />
          </mxGeometry>
        </mxCell>
        <mxCell id="RTvoSNndDVeTP_H8ob7e-20" value="" style="curved=1;startArrow=none;endArrow=block;exitX=0.12;exitY=1;entryX=0.5;entryY=0;rounded=0;" edge="1" parent="1" source="RTvoSNndDVeTP_H8ob7e-7" target="RTvoSNndDVeTP_H8ob7e-8">
          <mxGeometry relative="1" as="geometry">
            <Array as="points">
              <mxPoint x="98" y="744" />
            </Array>
          </mxGeometry>
        </mxCell>
        <mxCell id="RTvoSNndDVeTP_H8ob7e-21" value="是" style="curved=1;startArrow=none;endArrow=block;exitX=0.5;exitY=1;entryX=0.42;entryY=-0.01;rounded=0;" edge="1" parent="1" source="RTvoSNndDVeTP_H8ob7e-8" target="RTvoSNndDVeTP_H8ob7e-9">
          <mxGeometry relative="1" as="geometry">
            <Array as="points">
              <mxPoint x="98" y="961" />
            </Array>
          </mxGeometry>
        </mxCell>
        <mxCell id="RTvoSNndDVeTP_H8ob7e-22" value="" style="curved=1;startArrow=none;endArrow=block;exitX=0.58;exitY=-0.01;entryX=0.5;entryY=1;rounded=0;" edge="1" parent="1" source="RTvoSNndDVeTP_H8ob7e-9" target="RTvoSNndDVeTP_H8ob7e-7">
          <mxGeometry relative="1" as="geometry">
            <Array as="points">
              <mxPoint x="211" y="961" />
            </Array>
          </mxGeometry>
        </mxCell>
        <mxCell id="RTvoSNndDVeTP_H8ob7e-23" value="否" style="curved=1;startArrow=none;endArrow=block;exitX=1;exitY=0.83;entryX=0.06;entryY=0;rounded=0;" edge="1" parent="1" source="RTvoSNndDVeTP_H8ob7e-8" target="RTvoSNndDVeTP_H8ob7e-10">
          <mxGeometry relative="1" as="geometry">
            <Array as="points">
              <mxPoint x="272" y="961" />
            </Array>
          </mxGeometry>
        </mxCell>
        <mxCell id="RTvoSNndDVeTP_H8ob7e-24" value="是" style="curved=1;startArrow=none;endArrow=block;exitX=0.5;exitY=1;entryX=0.5;entryY=-0.01;rounded=0;" edge="1" parent="1" source="RTvoSNndDVeTP_H8ob7e-10" target="RTvoSNndDVeTP_H8ob7e-11">
          <mxGeometry relative="1" as="geometry">
            <Array as="points" />
          </mxGeometry>
        </mxCell>
        <mxCell id="RTvoSNndDVeTP_H8ob7e-25" value="" style="curved=1;startArrow=none;endArrow=block;exitX=0.5;exitY=0.99;entryX=0.5;entryY=-0.01;rounded=0;" edge="1" parent="1" source="RTvoSNndDVeTP_H8ob7e-11" target="RTvoSNndDVeTP_H8ob7e-12">
          <mxGeometry relative="1" as="geometry">
            <Array as="points" />
          </mxGeometry>
        </mxCell>
        <mxCell id="RTvoSNndDVeTP_H8ob7e-26" value="否" style="curved=1;startArrow=none;endArrow=block;exitX=0.58;exitY=0;entryX=1;entryY=0.95;rounded=0;" edge="1" parent="1" source="RTvoSNndDVeTP_H8ob7e-10" target="RTvoSNndDVeTP_H8ob7e-7">
          <mxGeometry relative="1" as="geometry">
            <Array as="points">
              <mxPoint x="375" y="961" />
              <mxPoint x="375" y="744" />
            </Array>
          </mxGeometry>
        </mxCell>
        <mxCell id="RTvoSNndDVeTP_H8ob7e-27" value="文件操作请求" style="whiteSpace=wrap;strokeWidth=2;" vertex="1" parent="1">
          <mxGeometry x="717" y="10" width="156" height="54" as="geometry" />
        </mxCell>
        <mxCell id="RTvoSNndDVeTP_H8ob7e-28" value="操作类型?" style="rhombus;strokeWidth=2;whiteSpace=wrap;" vertex="1" parent="1">
          <mxGeometry x="733" y="114" width="124" height="124" as="geometry" />
        </mxCell>
        <mxCell id="RTvoSNndDVeTP_H8ob7e-29" value="弹出命名对话框" style="whiteSpace=wrap;strokeWidth=2;" vertex="1" parent="1">
          <mxGeometry x="709" y="466" width="172" height="54" as="geometry" />
        </mxCell>
        <mxCell id="RTvoSNndDVeTP_H8ob7e-30" value="创建文件/文件夹" style="whiteSpace=wrap;strokeWidth=2;" vertex="1" parent="1">
          <mxGeometry x="705" y="644" width="180" height="50" as="geometry" />
        </mxCell>
        <mxCell id="RTvoSNndDVeTP_H8ob7e-31" value="是系统回收站?" style="rhombus;strokeWidth=2;whiteSpace=wrap;" vertex="1" parent="1">
          <mxGeometry x="1030" y="415" width="156" height="156" as="geometry" />
        </mxCell>
        <mxCell id="RTvoSNndDVeTP_H8ob7e-32" value="移动到回收站" style="whiteSpace=wrap;strokeWidth=2;" vertex="1" parent="1">
          <mxGeometry x="935" y="644" width="156" height="54" as="geometry" />
        </mxCell>
        <mxCell id="RTvoSNndDVeTP_H8ob7e-33" value="永久删除" style="whiteSpace=wrap;strokeWidth=2;" vertex="1" parent="1">
          <mxGeometry x="1141" y="644" width="124" height="54" as="geometry" />
        </mxCell>
        <mxCell id="RTvoSNndDVeTP_H8ob7e-34" value="计算文件大小" style="whiteSpace=wrap;strokeWidth=2;" vertex="1" parent="1">
          <mxGeometry x="494" y="311" width="156" height="54" as="geometry" />
        </mxCell>
        <mxCell id="RTvoSNndDVeTP_H8ob7e-35" value="显示进度条" style="whiteSpace=wrap;strokeWidth=2;" vertex="1" parent="1">
          <mxGeometry x="502" y="466" width="140" height="54" as="geometry" />
        </mxCell>
        <mxCell id="RTvoSNndDVeTP_H8ob7e-36" value="执行拷贝/移动" style="whiteSpace=wrap;strokeWidth=2;" vertex="1" parent="1">
          <mxGeometry x="490" y="644" width="164" height="54" as="geometry" />
        </mxCell>
        <mxCell id="RTvoSNndDVeTP_H8ob7e-37" value="更新文件列表" style="whiteSpace=wrap;strokeWidth=2;" vertex="1" parent="1">
          <mxGeometry x="826" y="748" width="156" height="54" as="geometry" />
        </mxCell>
        <mxCell id="RTvoSNndDVeTP_H8ob7e-38" value="" style="curved=1;startArrow=none;endArrow=block;exitX=0.5;exitY=1;entryX=0.5;entryY=0;rounded=0;" edge="1" parent="1" source="RTvoSNndDVeTP_H8ob7e-27" target="RTvoSNndDVeTP_H8ob7e-28">
          <mxGeometry relative="1" as="geometry">
            <Array as="points" />
          </mxGeometry>
        </mxCell>
        <mxCell id="RTvoSNndDVeTP_H8ob7e-39" value="新建" style="curved=1;startArrow=none;endArrow=block;exitX=0.5;exitY=1;entryX=0.5;entryY=0;rounded=0;" edge="1" parent="1" source="RTvoSNndDVeTP_H8ob7e-28" target="RTvoSNndDVeTP_H8ob7e-29">
          <mxGeometry relative="1" as="geometry">
            <Array as="points" />
          </mxGeometry>
        </mxCell>
        <mxCell id="RTvoSNndDVeTP_H8ob7e-40" value="" style="curved=1;startArrow=none;endArrow=block;exitX=0.5;exitY=1;entryX=0.5;entryY=0;rounded=0;" edge="1" parent="1" source="RTvoSNndDVeTP_H8ob7e-29" target="RTvoSNndDVeTP_H8ob7e-30">
          <mxGeometry relative="1" as="geometry">
            <Array as="points" />
          </mxGeometry>
        </mxCell>
        <mxCell id="RTvoSNndDVeTP_H8ob7e-41" value="删除" style="curved=1;startArrow=none;endArrow=block;exitX=1;exitY=0.66;entryX=0.5;entryY=0;rounded=0;" edge="1" parent="1" source="RTvoSNndDVeTP_H8ob7e-28" target="RTvoSNndDVeTP_H8ob7e-31">
          <mxGeometry relative="1" as="geometry">
            <Array as="points">
              <mxPoint x="1108" y="274" />
            </Array>
          </mxGeometry>
        </mxCell>
        <mxCell id="RTvoSNndDVeTP_H8ob7e-42" value="是" style="curved=1;startArrow=none;endArrow=block;exitX=0.08;exitY=1;entryX=0.5;entryY=0;rounded=0;" edge="1" parent="1" source="RTvoSNndDVeTP_H8ob7e-31" target="RTvoSNndDVeTP_H8ob7e-32">
          <mxGeometry relative="1" as="geometry">
            <Array as="points">
              <mxPoint x="1013" y="607" />
            </Array>
          </mxGeometry>
        </mxCell>
        <mxCell id="RTvoSNndDVeTP_H8ob7e-43" value="否" style="curved=1;startArrow=none;endArrow=block;exitX=0.91;exitY=1;entryX=0.5;entryY=0;rounded=0;" edge="1" parent="1" source="RTvoSNndDVeTP_H8ob7e-31" target="RTvoSNndDVeTP_H8ob7e-33">
          <mxGeometry relative="1" as="geometry">
            <Array as="points">
              <mxPoint x="1203" y="607" />
            </Array>
          </mxGeometry>
        </mxCell>
        <mxCell id="RTvoSNndDVeTP_H8ob7e-44" value="复制/移动" style="curved=1;startArrow=none;endArrow=block;exitX=0;exitY=0.72;entryX=0.5;entryY=0;rounded=0;" edge="1" parent="1" source="RTvoSNndDVeTP_H8ob7e-28" target="RTvoSNndDVeTP_H8ob7e-34">
          <mxGeometry relative="1" as="geometry">
            <Array as="points">
              <mxPoint x="572" y="274" />
            </Array>
          </mxGeometry>
        </mxCell>
        <mxCell id="RTvoSNndDVeTP_H8ob7e-45" value="" style="curved=1;startArrow=none;endArrow=block;exitX=0.5;exitY=1;entryX=0.5;entryY=0;rounded=0;" edge="1" parent="1" source="RTvoSNndDVeTP_H8ob7e-34" target="RTvoSNndDVeTP_H8ob7e-35">
          <mxGeometry relative="1" as="geometry">
            <Array as="points" />
          </mxGeometry>
        </mxCell>
        <mxCell id="RTvoSNndDVeTP_H8ob7e-46" value="" style="curved=1;startArrow=none;endArrow=block;exitX=0.5;exitY=1;entryX=0.5;entryY=0;rounded=0;" edge="1" parent="1" source="RTvoSNndDVeTP_H8ob7e-35" target="RTvoSNndDVeTP_H8ob7e-36">
          <mxGeometry relative="1" as="geometry">
            <Array as="points" />
          </mxGeometry>
        </mxCell>
        <mxCell id="RTvoSNndDVeTP_H8ob7e-47" value="" style="curved=1;startArrow=none;endArrow=block;exitX=0.5;exitY=1;entryX=0;entryY=0.27;rounded=0;" edge="1" parent="1" source="RTvoSNndDVeTP_H8ob7e-36" target="RTvoSNndDVeTP_H8ob7e-37">
          <mxGeometry relative="1" as="geometry">
            <Array as="points">
              <mxPoint x="572" y="723" />
            </Array>
          </mxGeometry>
        </mxCell>
        <mxCell id="RTvoSNndDVeTP_H8ob7e-48" value="" style="curved=1;startArrow=none;endArrow=block;exitX=0.5;exitY=1;entryX=0.13;entryY=0;rounded=0;" edge="1" parent="1" source="RTvoSNndDVeTP_H8ob7e-30" target="RTvoSNndDVeTP_H8ob7e-37">
          <mxGeometry relative="1" as="geometry">
            <Array as="points">
              <mxPoint x="795" y="723" />
            </Array>
          </mxGeometry>
        </mxCell>
        <mxCell id="RTvoSNndDVeTP_H8ob7e-49" value="" style="curved=1;startArrow=none;endArrow=block;exitX=0.5;exitY=1;entryX=0.86;entryY=0;rounded=0;" edge="1" parent="1" source="RTvoSNndDVeTP_H8ob7e-32" target="RTvoSNndDVeTP_H8ob7e-37">
          <mxGeometry relative="1" as="geometry">
            <Array as="points">
              <mxPoint x="1013" y="723" />
            </Array>
          </mxGeometry>
        </mxCell>
        <mxCell id="RTvoSNndDVeTP_H8ob7e-50" value="" style="curved=1;startArrow=none;endArrow=block;exitX=0.5;exitY=1;entryX=1;entryY=0.24;rounded=0;" edge="1" parent="1" source="RTvoSNndDVeTP_H8ob7e-33" target="RTvoSNndDVeTP_H8ob7e-37">
          <mxGeometry relative="1" as="geometry">
            <Array as="points">
              <mxPoint x="1203" y="723" />
            </Array>
          </mxGeometry>
        </mxCell>
        <mxCell id="RTvoSNndDVeTP_H8ob7e-75" value="输入搜索条件" style="whiteSpace=wrap;strokeWidth=2;" vertex="1" parent="1">
          <mxGeometry x="1411" y="20" width="156" height="54" as="geometry" />
        </mxCell>
        <mxCell id="RTvoSNndDVeTP_H8ob7e-76" value="搜索模式?" style="rhombus;strokeWidth=2;whiteSpace=wrap;" vertex="1" parent="1">
          <mxGeometry x="1427" y="124" width="124" height="124" as="geometry" />
        </mxCell>
        <mxCell id="RTvoSNndDVeTP_H8ob7e-77" value="遍历目录树" style="whiteSpace=wrap;strokeWidth=2;" vertex="1" parent="1">
          <mxGeometry x="1316" y="425" width="140" height="54" as="geometry" />
        </mxCell>
        <mxCell id="RTvoSNndDVeTP_H8ob7e-78" value="筛选文本文件" style="whiteSpace=wrap;strokeWidth=2;" vertex="1" parent="1">
          <mxGeometry x="1514" y="321" width="156" height="54" as="geometry" />
        </mxCell>
        <mxCell id="RTvoSNndDVeTP_H8ob7e-79" value="匹配文件名规则" style="whiteSpace=wrap;strokeWidth=2;" vertex="1" parent="1">
          <mxGeometry x="1300" y="529" width="172" height="54" as="geometry" />
        </mxCell>
        <mxCell id="RTvoSNndDVeTP_H8ob7e-80" value="读取文件内容" style="whiteSpace=wrap;strokeWidth=2;" vertex="1" parent="1">
          <mxGeometry x="1514" y="425" width="156" height="54" as="geometry" />
        </mxCell>
        <mxCell id="RTvoSNndDVeTP_H8ob7e-81" value="关键词匹配" style="whiteSpace=wrap;strokeWidth=2;" vertex="1" parent="1">
          <mxGeometry x="1522" y="529" width="140" height="54" as="geometry" />
        </mxCell>
        <mxCell id="RTvoSNndDVeTP_H8ob7e-82" value="生成结果列表" style="whiteSpace=wrap;strokeWidth=2;" vertex="1" parent="1">
          <mxGeometry x="1411" y="633" width="156" height="54" as="geometry" />
        </mxCell>
        <mxCell id="RTvoSNndDVeTP_H8ob7e-83" value="需要排序?" style="rhombus;strokeWidth=2;whiteSpace=wrap;" vertex="1" parent="1">
          <mxGeometry x="1427" y="737" width="124" height="124" as="geometry" />
        </mxCell>
        <mxCell id="RTvoSNndDVeTP_H8ob7e-84" value="按选定字段排序" style="whiteSpace=wrap;strokeWidth=2;" vertex="1" parent="1">
          <mxGeometry x="1469" y="934" width="172" height="54" as="geometry" />
        </mxCell>
        <mxCell id="RTvoSNndDVeTP_H8ob7e-85" value="显示结果" style="whiteSpace=wrap;strokeWidth=2;" vertex="1" parent="1">
          <mxGeometry x="1427" y="1038" width="124" height="54" as="geometry" />
        </mxCell>
        <mxCell id="RTvoSNndDVeTP_H8ob7e-86" value="" style="curved=1;startArrow=none;endArrow=block;exitX=0.5;exitY=1;entryX=0.5;entryY=0;rounded=0;" edge="1" parent="1" source="RTvoSNndDVeTP_H8ob7e-75" target="RTvoSNndDVeTP_H8ob7e-76">
          <mxGeometry relative="1" as="geometry">
            <Array as="points" />
          </mxGeometry>
        </mxCell>
        <mxCell id="RTvoSNndDVeTP_H8ob7e-87" value="文件名搜索" style="curved=1;startArrow=none;endArrow=block;exitX=0;exitY=0.98;entryX=0.5;entryY=0;rounded=0;" edge="1" parent="1" source="RTvoSNndDVeTP_H8ob7e-76" target="RTvoSNndDVeTP_H8ob7e-77">
          <mxGeometry relative="1" as="geometry">
            <Array as="points">
              <mxPoint x="1386" y="284" />
            </Array>
          </mxGeometry>
        </mxCell>
        <mxCell id="RTvoSNndDVeTP_H8ob7e-88" value="内容搜索" style="curved=1;startArrow=none;endArrow=block;exitX=1;exitY=0.98;entryX=0.5;entryY=0;rounded=0;" edge="1" parent="1" source="RTvoSNndDVeTP_H8ob7e-76" target="RTvoSNndDVeTP_H8ob7e-78">
          <mxGeometry relative="1" as="geometry">
            <Array as="points">
              <mxPoint x="1592" y="284" />
            </Array>
          </mxGeometry>
        </mxCell>
        <mxCell id="RTvoSNndDVeTP_H8ob7e-89" value="" style="curved=1;startArrow=none;endArrow=block;exitX=0.5;exitY=1;entryX=0.5;entryY=0;rounded=0;" edge="1" parent="1" source="RTvoSNndDVeTP_H8ob7e-77" target="RTvoSNndDVeTP_H8ob7e-79">
          <mxGeometry relative="1" as="geometry">
            <Array as="points" />
          </mxGeometry>
        </mxCell>
        <mxCell id="RTvoSNndDVeTP_H8ob7e-90" value="" style="curved=1;startArrow=none;endArrow=block;exitX=0.5;exitY=1;entryX=0.5;entryY=0;rounded=0;" edge="1" parent="1" source="RTvoSNndDVeTP_H8ob7e-78" target="RTvoSNndDVeTP_H8ob7e-80">
          <mxGeometry relative="1" as="geometry">
            <Array as="points" />
          </mxGeometry>
        </mxCell>
        <mxCell id="RTvoSNndDVeTP_H8ob7e-91" value="" style="curved=1;startArrow=none;endArrow=block;exitX=0.5;exitY=1;entryX=0.5;entryY=0;rounded=0;" edge="1" parent="1" source="RTvoSNndDVeTP_H8ob7e-80" target="RTvoSNndDVeTP_H8ob7e-81">
          <mxGeometry relative="1" as="geometry">
            <Array as="points" />
          </mxGeometry>
        </mxCell>
        <mxCell id="RTvoSNndDVeTP_H8ob7e-92" value="" style="curved=1;startArrow=none;endArrow=block;exitX=0.5;exitY=1;entryX=0.16;entryY=0;rounded=0;" edge="1" parent="1" source="RTvoSNndDVeTP_H8ob7e-79" target="RTvoSNndDVeTP_H8ob7e-82">
          <mxGeometry relative="1" as="geometry">
            <Array as="points">
              <mxPoint x="1386" y="608" />
            </Array>
          </mxGeometry>
        </mxCell>
        <mxCell id="RTvoSNndDVeTP_H8ob7e-93" value="" style="curved=1;startArrow=none;endArrow=block;exitX=0.5;exitY=1;entryX=0.84;entryY=0;rounded=0;" edge="1" parent="1" source="RTvoSNndDVeTP_H8ob7e-81" target="RTvoSNndDVeTP_H8ob7e-82">
          <mxGeometry relative="1" as="geometry">
            <Array as="points">
              <mxPoint x="1592" y="608" />
            </Array>
          </mxGeometry>
        </mxCell>
        <mxCell id="RTvoSNndDVeTP_H8ob7e-94" value="" style="curved=1;startArrow=none;endArrow=block;exitX=0.5;exitY=1;entryX=0.5;entryY=0;rounded=0;" edge="1" parent="1" source="RTvoSNndDVeTP_H8ob7e-82" target="RTvoSNndDVeTP_H8ob7e-83">
          <mxGeometry relative="1" as="geometry">
            <Array as="points" />
          </mxGeometry>
        </mxCell>
        <mxCell id="RTvoSNndDVeTP_H8ob7e-95" value="是" style="curved=1;startArrow=none;endArrow=block;exitX=0.83;exitY=1;entryX=0.5;entryY=0;rounded=0;" edge="1" parent="1" source="RTvoSNndDVeTP_H8ob7e-83" target="RTvoSNndDVeTP_H8ob7e-84">
          <mxGeometry relative="1" as="geometry">
            <Array as="points">
              <mxPoint x="1555" y="897" />
            </Array>
          </mxGeometry>
        </mxCell>
        <mxCell id="RTvoSNndDVeTP_H8ob7e-96" value="否" style="curved=1;startArrow=none;endArrow=block;exitX=0.17;exitY=1;entryX=0.23;entryY=0;rounded=0;" edge="1" parent="1" source="RTvoSNndDVeTP_H8ob7e-83" target="RTvoSNndDVeTP_H8ob7e-85">
          <mxGeometry relative="1" as="geometry">
            <Array as="points">
              <mxPoint x="1424" y="897" />
              <mxPoint x="1424" y="1013" />
            </Array>
          </mxGeometry>
        </mxCell>
        <mxCell id="RTvoSNndDVeTP_H8ob7e-97" value="" style="curved=1;startArrow=none;endArrow=block;exitX=0.5;exitY=1;entryX=0.77;entryY=0;rounded=0;" edge="1" parent="1" source="RTvoSNndDVeTP_H8ob7e-84" target="RTvoSNndDVeTP_H8ob7e-85">
          <mxGeometry relative="1" as="geometry">
            <Array as="points">
              <mxPoint x="1555" y="1013" />
            </Array>
          </mxGeometry>
        </mxCell>
        <mxCell id="RTvoSNndDVeTP_H8ob7e-98" value="配置变更事件" style="whiteSpace=wrap;strokeWidth=2;" vertex="1" parent="1">
          <mxGeometry x="1926" y="24.5" width="156" height="54" as="geometry" />
        </mxCell>
        <mxCell id="RTvoSNndDVeTP_H8ob7e-99" value="变更类型?" style="rhombus;strokeWidth=2;whiteSpace=wrap;" vertex="1" parent="1">
          <mxGeometry x="1942" y="128.5" width="124" height="124" as="geometry" />
        </mxCell>
        <mxCell id="RTvoSNndDVeTP_H8ob7e-100" value="记录窗口参数" style="whiteSpace=wrap;strokeWidth=2;" vertex="1" parent="1">
          <mxGeometry x="1720" y="325.5" width="156" height="54" as="geometry" />
        </mxCell>
        <mxCell id="RTvoSNndDVeTP_H8ob7e-101" value="更新配置字典" style="whiteSpace=wrap;strokeWidth=2;" vertex="1" parent="1">
          <mxGeometry x="1926" y="325.5" width="156" height="54" as="geometry" />
        </mxCell>
        <mxCell id="RTvoSNndDVeTP_H8ob7e-102" value="维护最近访问队列" style="whiteSpace=wrap;strokeWidth=2;" vertex="1" parent="1">
          <mxGeometry x="2132" y="325.5" width="188" height="54" as="geometry" />
        </mxCell>
        <mxCell id="RTvoSNndDVeTP_H8ob7e-103" value="序列化为JSON" style="whiteSpace=wrap;strokeWidth=2;" vertex="1" parent="1">
          <mxGeometry x="1924" y="429.5" width="160" height="54" as="geometry" />
        </mxCell>
        <mxCell id="RTvoSNndDVeTP_H8ob7e-104" value="写入配置文件" style="whiteSpace=wrap;strokeWidth=2;" vertex="1" parent="1">
          <mxGeometry x="1926" y="533.5" width="156" height="54" as="geometry" />
        </mxCell>
        <mxCell id="RTvoSNndDVeTP_H8ob7e-105" value="" style="curved=1;startArrow=none;endArrow=block;exitX=0.5;exitY=1;entryX=0.5;entryY=0;rounded=0;" edge="1" parent="1" source="RTvoSNndDVeTP_H8ob7e-98" target="RTvoSNndDVeTP_H8ob7e-99">
          <mxGeometry relative="1" as="geometry">
            <Array as="points" />
          </mxGeometry>
        </mxCell>
        <mxCell id="RTvoSNndDVeTP_H8ob7e-106" value="UI状态" style="curved=1;startArrow=none;endArrow=block;exitX=0;exitY=0.74;entryX=0.5;entryY=0;rounded=0;" edge="1" parent="1" source="RTvoSNndDVeTP_H8ob7e-99" target="RTvoSNndDVeTP_H8ob7e-100">
          <mxGeometry relative="1" as="geometry">
            <Array as="points">
              <mxPoint x="1798" y="288.5" />
            </Array>
          </mxGeometry>
        </mxCell>
        <mxCell id="RTvoSNndDVeTP_H8ob7e-107" value="用户偏好" style="curved=1;startArrow=none;endArrow=block;exitX=0.5;exitY=1;entryX=0.5;entryY=0;rounded=0;" edge="1" parent="1" source="RTvoSNndDVeTP_H8ob7e-99" target="RTvoSNndDVeTP_H8ob7e-101">
          <mxGeometry relative="1" as="geometry">
            <Array as="points" />
          </mxGeometry>
        </mxCell>
        <mxCell id="RTvoSNndDVeTP_H8ob7e-108" value="路径历史" style="curved=1;startArrow=none;endArrow=block;exitX=1;exitY=0.72;entryX=0.5;entryY=0;rounded=0;" edge="1" parent="1" source="RTvoSNndDVeTP_H8ob7e-99" target="RTvoSNndDVeTP_H8ob7e-102">
          <mxGeometry relative="1" as="geometry">
            <Array as="points">
              <mxPoint x="2226" y="288.5" />
            </Array>
          </mxGeometry>
        </mxCell>
        <mxCell id="RTvoSNndDVeTP_H8ob7e-109" value="" style="curved=1;startArrow=none;endArrow=block;exitX=0.5;exitY=1;entryX=0;entryY=0.12;rounded=0;" edge="1" parent="1" source="RTvoSNndDVeTP_H8ob7e-100" target="RTvoSNndDVeTP_H8ob7e-103">
          <mxGeometry relative="1" as="geometry">
            <Array as="points">
              <mxPoint x="1798" y="404.5" />
            </Array>
          </mxGeometry>
        </mxCell>
        <mxCell id="RTvoSNndDVeTP_H8ob7e-110" value="" style="curved=1;startArrow=none;endArrow=block;exitX=0.5;exitY=1;entryX=0.5;entryY=0;rounded=0;" edge="1" parent="1" source="RTvoSNndDVeTP_H8ob7e-101" target="RTvoSNndDVeTP_H8ob7e-103">
          <mxGeometry relative="1" as="geometry">
            <Array as="points" />
          </mxGeometry>
        </mxCell>
        <mxCell id="RTvoSNndDVeTP_H8ob7e-111" value="" style="curved=1;startArrow=none;endArrow=block;exitX=0.5;exitY=1;entryX=1;entryY=0.15;rounded=0;" edge="1" parent="1" source="RTvoSNndDVeTP_H8ob7e-102" target="RTvoSNndDVeTP_H8ob7e-103">
          <mxGeometry relative="1" as="geometry">
            <Array as="points">
              <mxPoint x="2226" y="404.5" />
            </Array>
          </mxGeometry>
        </mxCell>
        <mxCell id="RTvoSNndDVeTP_H8ob7e-112" value="" style="curved=1;startArrow=none;endArrow=block;exitX=0.5;exitY=1;entryX=0.5;entryY=0;rounded=0;" edge="1" parent="1" source="RTvoSNndDVeTP_H8ob7e-103" target="RTvoSNndDVeTP_H8ob7e-104">
          <mxGeometry relative="1" as="geometry">
            <Array as="points" />
          </mxGeometry>
        </mxCell>
        <mxCell id="RTvoSNndDVeTP_H8ob7e-113" value="操作执行" style="whiteSpace=wrap;strokeWidth=2;" vertex="1" parent="1">
          <mxGeometry x="2635" y="20" width="124" height="54" as="geometry" />
        </mxCell>
        <mxCell id="RTvoSNndDVeTP_H8ob7e-114" value="发生异常?" style="rhombus;strokeWidth=2;whiteSpace=wrap;" vertex="1" parent="1">
          <mxGeometry x="2635" y="124" width="124" height="124" as="geometry" />
        </mxCell>
        <mxCell id="RTvoSNndDVeTP_H8ob7e-115" value="异常类型?" style="rhombus;strokeWidth=2;whiteSpace=wrap;" vertex="1" parent="1">
          <mxGeometry x="2548" y="321" width="124" height="124" as="geometry" />
        </mxCell>
        <mxCell id="RTvoSNndDVeTP_H8ob7e-116" value="显示错误对话框" style="whiteSpace=wrap;strokeWidth=2;" vertex="1" parent="1">
          <mxGeometry x="2310" y="518" width="172" height="54" as="geometry" />
        </mxCell>
        <mxCell id="RTvoSNndDVeTP_H8ob7e-117" value="跳转到根目录" style="whiteSpace=wrap;strokeWidth=2;" vertex="1" parent="1">
          <mxGeometry x="2532" y="518" width="156" height="54" as="geometry" />
        </mxCell>
        <mxCell id="RTvoSNndDVeTP_H8ob7e-118" value="提示关闭相关程序" style="whiteSpace=wrap;strokeWidth=2;" vertex="1" parent="1">
          <mxGeometry x="2738" y="518" width="188" height="54" as="geometry" />
        </mxCell>
        <mxCell id="RTvoSNndDVeTP_H8ob7e-119" value="记录日志" style="whiteSpace=wrap;strokeWidth=2;" vertex="1" parent="1">
          <mxGeometry x="2500" y="633" width="124" height="54" as="geometry" />
        </mxCell>
        <mxCell id="RTvoSNndDVeTP_H8ob7e-120" value="正常流程" style="whiteSpace=wrap;strokeWidth=2;" vertex="1" parent="1">
          <mxGeometry x="2722" y="356" width="124" height="54" as="geometry" />
        </mxCell>
        <mxCell id="RTvoSNndDVeTP_H8ob7e-121" value="" style="curved=1;startArrow=none;endArrow=block;exitX=0.5;exitY=1;entryX=0.5;entryY=0;rounded=0;" edge="1" parent="1" source="RTvoSNndDVeTP_H8ob7e-113" target="RTvoSNndDVeTP_H8ob7e-114">
          <mxGeometry relative="1" as="geometry">
            <Array as="points" />
          </mxGeometry>
        </mxCell>
        <mxCell id="RTvoSNndDVeTP_H8ob7e-122" value="是" style="curved=1;startArrow=none;endArrow=block;exitX=0.06;exitY=1;entryX=0.5;entryY=0;rounded=0;" edge="1" parent="1" source="RTvoSNndDVeTP_H8ob7e-114" target="RTvoSNndDVeTP_H8ob7e-115">
          <mxGeometry relative="1" as="geometry">
            <Array as="points">
              <mxPoint x="2610" y="284" />
            </Array>
          </mxGeometry>
        </mxCell>
        <mxCell id="RTvoSNndDVeTP_H8ob7e-123" value="权限不足" style="curved=1;startArrow=none;endArrow=block;exitX=0;exitY=0.73;entryX=0.5;entryY=0;rounded=0;" edge="1" parent="1" source="RTvoSNndDVeTP_H8ob7e-115" target="RTvoSNndDVeTP_H8ob7e-116">
          <mxGeometry relative="1" as="geometry">
            <Array as="points">
              <mxPoint x="2396" y="481" />
            </Array>
          </mxGeometry>
        </mxCell>
        <mxCell id="RTvoSNndDVeTP_H8ob7e-124" value="路径无效" style="curved=1;startArrow=none;endArrow=block;exitX=0.5;exitY=1;entryX=0.5;entryY=0;rounded=0;" edge="1" parent="1" source="RTvoSNndDVeTP_H8ob7e-115" target="RTvoSNndDVeTP_H8ob7e-117">
          <mxGeometry relative="1" as="geometry">
            <Array as="points" />
          </mxGeometry>
        </mxCell>
        <mxCell id="RTvoSNndDVeTP_H8ob7e-125" value="文件占用" style="curved=1;startArrow=none;endArrow=block;exitX=1;exitY=0.72;entryX=0.5;entryY=0;rounded=0;" edge="1" parent="1" source="RTvoSNndDVeTP_H8ob7e-115" target="RTvoSNndDVeTP_H8ob7e-118">
          <mxGeometry relative="1" as="geometry">
            <Array as="points">
              <mxPoint x="2832" y="481" />
            </Array>
          </mxGeometry>
        </mxCell>
        <mxCell id="RTvoSNndDVeTP_H8ob7e-126" value="" style="curved=1;startArrow=none;endArrow=block;exitX=0.5;exitY=1;entryX=0;entryY=0.03;rounded=0;" edge="1" parent="1" source="RTvoSNndDVeTP_H8ob7e-116" target="RTvoSNndDVeTP_H8ob7e-119">
          <mxGeometry relative="1" as="geometry">
            <Array as="points">
              <mxPoint x="2396" y="597" />
            </Array>
          </mxGeometry>
        </mxCell>
        <mxCell id="RTvoSNndDVeTP_H8ob7e-127" value="" style="curved=1;startArrow=none;endArrow=block;exitX=0.5;exitY=1;entryX=0.86;entryY=0;rounded=0;" edge="1" parent="1" source="RTvoSNndDVeTP_H8ob7e-117" target="RTvoSNndDVeTP_H8ob7e-119">
          <mxGeometry relative="1" as="geometry">
            <Array as="points">
              <mxPoint x="2610" y="597" />
            </Array>
          </mxGeometry>
        </mxCell>
        <mxCell id="RTvoSNndDVeTP_H8ob7e-128" value="" style="curved=1;startArrow=none;endArrow=block;exitX=0.5;exitY=1;entryX=1;entryY=0.3;rounded=0;" edge="1" parent="1" source="RTvoSNndDVeTP_H8ob7e-118" target="RTvoSNndDVeTP_H8ob7e-119">
          <mxGeometry relative="1" as="geometry">
            <Array as="points">
              <mxPoint x="2832" y="597" />
            </Array>
          </mxGeometry>
        </mxCell>
        <mxCell id="RTvoSNndDVeTP_H8ob7e-129" value="否" style="curved=1;startArrow=none;endArrow=block;exitX=0.94;exitY=1;entryX=0.5;entryY=0;rounded=0;" edge="1" parent="1" source="RTvoSNndDVeTP_H8ob7e-114" target="RTvoSNndDVeTP_H8ob7e-120">
          <mxGeometry relative="1" as="geometry">
            <Array as="points">
              <mxPoint x="2784" y="284" />
            </Array>
          </mxGeometry>
        </mxCell>
      </root>
    </mxGraphModel>
  </diagram>
</mxfile>
